<svg width="25" height="24" viewBox="0 0 25 24" fill="none" xmlns="http://www.w3.org/2000/svg">
<path fill-rule="evenodd" clip-rule="evenodd" d="M15.9381 12.4978C15.9381 10.761 14.5297 9.35254 12.7928 9.35254C11.056 9.35254 9.64758 10.761 9.64758 12.4978C9.64758 14.2346 11.056 15.6431 12.7928 15.6431C14.5297 15.6431 15.9381 14.2346 15.9381 12.4978Z" stroke="#9D00A8" stroke-width="1.5" stroke-linecap="round" stroke-linejoin="round"/>
<path fill-rule="evenodd" clip-rule="evenodd" d="M12.7925 20.2002C20.8378 20.2002 21.7957 17.7897 21.7957 12.5665C21.7957 8.90545 21.3115 6.94651 18.262 6.1044C17.982 6.01598 17.6715 5.84756 17.4199 5.57072C17.0136 5.12545 16.7167 3.75809 15.7357 3.3444C14.7546 2.93177 10.8146 2.95072 9.84937 3.3444C8.88516 3.73914 8.57147 5.12545 8.16516 5.57072C7.91358 5.84756 7.60411 6.01598 7.32305 6.1044C4.27358 6.94651 3.78937 8.90545 3.78937 12.5665C3.78937 17.7897 4.74726 20.2002 12.7925 20.2002Z" stroke="#9D00A8" stroke-width="1.5" stroke-linecap="round" stroke-linejoin="round"/>
<path d="M17.7045 9H17.7135" stroke="#9D00A8" stroke-width="1.5" stroke-linecap="round" stroke-linejoin="round"/>
</svg>
