<svg width="20" height="20" viewBox="0 0 20 20" fill="none" xmlns="http://www.w3.org/2000/svg">
<g id="Buy">
<path id="Stroke 1" d="M3.69421 4.43046C13.5426 3.09322 15.9696 3.25734 17.5001 5.00012C19.0305 6.74291 18.6722 12.4882 16.8832 14.0872C15.0952 15.6862 7.33021 15.8382 4.87021 14.0872C2.27121 12.2362 3.77921 6.54222 3.69421 3.09322C3.74521 1.16322 1.65021 0.85022 1.65021 0.85022" stroke="white" stroke-width="1.5" stroke-linecap="round" stroke-linejoin="round"/>
<path id="Stroke 3" d="M12.1561 8.71985H14.9291" stroke="white" stroke-width="1.5" stroke-linecap="round" stroke-linejoin="round"/>
<path id="Stroke 5" fill-rule="evenodd" clip-rule="evenodd" d="M5.26399 18.1276C5.56399 18.1276 5.80799 18.3716 5.80799 18.6716C5.80799 18.9726 5.56399 19.2166 5.26399 19.2166C4.96299 19.2166 4.71899 18.9726 4.71899 18.6716C4.71899 18.3716 4.96299 18.1276 5.26399 18.1276Z" fill="white" stroke="white" stroke-width="1.5" stroke-linecap="round" stroke-linejoin="round"/>
<path id="Stroke 7" fill-rule="evenodd" clip-rule="evenodd" d="M15.5955 18.1276C15.8965 18.1276 16.1405 18.3716 16.1405 18.6716C16.1405 18.9726 15.8965 19.2166 15.5955 19.2166C15.2955 19.2166 15.0515 18.9726 15.0515 18.6716C15.0515 18.3716 15.2955 18.1276 15.5955 18.1276Z" fill="white" stroke="white" stroke-width="1.5" stroke-linecap="round" stroke-linejoin="round"/>
</g>
</svg>
