<svg width="47" height="46" viewBox="0 0 47 46" fill="none" xmlns="http://www.w3.org/2000/svg">
<path id="Vector" d="M42.1292 30.6567V17.5114C42.1292 15.9873 41.082 14.5682 39.2903 13.3661V7.60917C39.2903 7.04567 38.8433 6.57953 38.2614 6.49137C38.6884 6.31043 38.9905 5.93707 38.9905 5.4878C38.9905 4.8645 37.724 2.85277 37.724 2.85277C37.724 2.85277 36.4559 4.86373 36.4559 5.4878C36.4559 5.93093 36.7511 6.30123 37.1697 6.48523C36.5548 6.54657 36.0726 7.0242 36.0726 7.60917V11.7377C34.9499 11.3094 33.7999 10.9567 32.6302 10.682C32.6906 10.5371 32.7226 10.382 32.7245 10.225C32.7245 9.4714 31.1912 7.0403 31.1912 7.0403C31.1912 7.0403 29.7882 9.2667 29.6701 10.1177C28.1682 9.89613 26.5697 9.76733 24.9206 9.7152V4.19137C24.9206 3.6846 24.5281 3.2614 24.0098 3.16863C24.3633 3.0038 24.6101 2.68487 24.6101 2.30537C24.6094 1.7595 23.5 0 23.5 0C23.5 0 22.3906 1.7595 22.3906 2.30537C22.3906 2.68027 22.6314 2.99613 22.9779 3.1625C22.4313 3.23303 22.0073 3.66467 22.0073 4.19137V9.71597C20.395 9.76963 18.8318 9.8969 17.3613 10.1131C17.2172 9.24293 15.8425 7.06253 15.8425 7.06253C15.8425 7.06253 14.3092 9.49287 14.3092 10.2473C14.3092 10.3983 14.3437 10.5409 14.3943 10.6766C13.1862 10.9584 11.9993 11.3245 10.8423 11.7722V7.62067C10.8423 7.05793 10.3946 6.5918 9.81193 6.50363C10.239 6.3227 10.5426 5.94857 10.5426 5.4993C10.5426 4.876 9.2745 2.86427 9.2745 2.86427C9.2745 2.86427 8.00643 4.87523 8.00643 5.4993C8.00643 5.94243 8.30237 6.31273 8.72097 6.49673C8.10533 6.55883 7.6231 7.03647 7.6231 7.62067V13.4274C5.88507 14.6173 4.86923 16.0141 4.86923 17.5122V30.659C2.12303 32.2506 0.5 34.2087 0.5 36.327C0.5 41.6699 10.7979 46 23.5 46C36.2021 46 46.5 41.6699 46.5 36.327C46.5 34.2079 44.8762 32.2498 42.1292 30.6567ZM37.0892 6.08963C37.0892 5.7776 37.724 4.77173 37.724 4.77173C37.724 4.77173 38.3588 5.7776 38.3588 6.08963C38.3574 6.165 38.3396 6.23915 38.3066 6.30694C38.2736 6.37473 38.2263 6.43452 38.1679 6.48217C38.1326 6.4791 38.0981 6.4722 38.0621 6.4722H37.3015C37.2916 6.4722 37.2831 6.4745 37.2732 6.4745C37.2167 6.42728 37.1711 6.36847 37.1393 6.30207C37.1076 6.23567 37.0905 6.16322 37.0892 6.08963ZM36.8385 7.60917C36.8385 7.4083 37.0501 7.23963 37.3015 7.23963H38.0621C38.312 7.23963 38.5236 7.40907 38.5236 7.60917V15.8869C38.5223 15.968 38.4906 16.0457 38.4347 16.1046L38.1525 16.2487C38.1229 16.254 38.0929 16.2568 38.0628 16.2572H37.3023C37.0516 16.2572 36.8392 16.087 36.8392 15.8869L36.8385 7.60917ZM31.1904 9.36023C31.1904 9.36023 31.9586 10.5754 31.9586 10.9526C31.9586 11.329 31.6144 11.6349 31.1904 11.6349C30.7665 11.6349 30.4238 11.3298 30.4238 10.9526C30.4238 10.5754 31.1904 9.36023 31.1904 9.36023ZM22.9457 2.8313C22.9457 2.55913 23.5 1.67977 23.5 1.67977C23.5 1.67977 24.0558 2.55837 24.0558 2.8313C24.0544 2.89331 24.0403 2.95436 24.0143 3.01068C23.9884 3.067 23.9511 3.11737 23.9048 3.15867C23.868 3.15483 23.8327 3.14793 23.7952 3.14793H23.1305C23.1167 3.14793 23.1044 3.151 23.0906 3.15177C23.046 3.11092 23.0102 3.06147 22.9853 3.00638C22.9604 2.9513 22.9469 2.89174 22.9457 2.8313ZM22.774 4.19137C22.774 4.04187 22.9373 3.91537 23.1305 3.91537H23.7952C23.9891 3.91537 24.1532 4.04187 24.1532 4.19137V11.4348C24.1524 11.4903 24.1311 11.5436 24.0934 11.5843L23.8596 11.7047C23.8382 11.7078 23.8167 11.7093 23.7952 11.7093H23.1305C22.9373 11.7093 22.774 11.5836 22.774 11.4348V4.19137ZM15.8425 9.38093C15.8425 9.38093 16.6092 10.5969 16.6092 10.9741C16.6092 11.3497 16.2665 11.6564 15.8425 11.6564C15.4186 11.6564 15.0759 11.3505 15.0759 10.9741C15.0759 10.5969 15.8425 9.38093 15.8425 9.38093ZM8.64123 6.0996C8.64123 5.7891 9.2745 4.78323 9.2745 4.78323C9.2745 4.78323 9.9093 5.7891 9.9093 6.0996C9.90802 6.17529 9.8902 6.24978 9.85709 6.31785C9.82398 6.38593 9.77638 6.44593 9.71763 6.49367C9.68237 6.4906 9.64863 6.4837 9.6126 6.4837H8.85207C8.84287 6.4837 8.83443 6.486 8.82523 6.486C8.76886 6.43838 8.72328 6.37928 8.69155 6.31265C8.65982 6.24602 8.64267 6.17339 8.64123 6.0996ZM8.38977 7.61913C8.38977 7.41903 8.60137 7.25037 8.85283 7.25037H9.61337C9.86407 7.25037 10.0764 7.4198 10.0764 7.61913V15.8976C10.0749 15.9784 10.0429 16.0557 9.98673 16.1138L9.7046 16.2587C9.67473 16.264 9.64447 16.2668 9.61413 16.2671H8.8536C8.6029 16.2671 8.39053 16.0977 8.39053 15.8976L8.38977 7.61913ZM7.54337 16.5454C7.56867 16.4151 7.61927 16.2963 7.6645 16.1751C7.7151 16.3607 7.81477 16.527 7.95047 16.6643C7.89067 17.102 7.998 17.5459 8.23183 17.93C8.7294 18.7297 9.58117 19.2893 10.449 19.734C11.6642 20.3389 12.9721 20.7245 14.3092 21.0281V13.2242C14.3092 13.0211 14.4066 12.8432 14.5492 12.6968C14.3284 12.7397 14.106 12.7719 13.8868 12.821C12.8556 13.0556 11.8068 13.3661 10.8423 13.8146V13.409C10.8538 13.4036 10.8646 13.3975 10.8761 13.3929C11.8175 12.972 12.7996 12.663 13.7955 12.4269C15.7911 11.965 17.8266 11.6965 19.8737 11.625C20.5905 11.5981 21.3089 11.602 22.028 11.6196C22.1024 11.9968 22.3952 12.2989 22.7793 12.4177C21.8169 12.3184 20.8504 12.2639 19.8829 12.2544C18.7465 12.2489 17.6105 12.3021 16.4796 12.4139C16.9312 12.5013 17.2731 12.8217 17.2731 13.2242V14.6288L17.3138 14.6088C17.8397 14.3804 18.3603 14.2485 18.8862 14.1488C19.9358 13.9556 20.9869 13.9135 22.0334 13.9733C23.0852 14.0461 24.1126 14.1918 25.1399 14.6295C25.3929 14.7445 25.6451 14.8848 25.879 15.0964C26.1005 15.2904 26.3604 15.6668 26.2562 16.0977C26.145 16.4994 25.8682 16.7034 25.6321 16.8598C25.3926 17.0066 25.1341 17.1201 24.8639 17.1971C23.8235 17.4984 22.7709 17.4953 21.7413 17.3642C21.2253 17.2822 20.7224 17.1871 20.2317 16.9502C20.004 16.826 19.7341 16.675 19.6544 16.3545C19.6107 16.0011 19.9151 15.8171 20.1267 15.7052L20.1819 15.8056C19.9795 15.9283 19.7786 16.1291 19.8369 16.3147C19.8951 16.5002 20.1244 16.629 20.3375 16.7187C20.7768 16.8943 21.292 16.9579 21.7788 16.9947C22.764 17.0476 23.7814 16.9541 24.6799 16.6451C25.0832 16.5155 25.5846 16.1843 25.6045 15.9551C25.6674 15.791 25.2687 15.4644 24.8455 15.3211C23.983 15.0037 22.961 14.9071 21.9943 14.871C21.016 14.8488 20.027 14.9239 19.0855 15.1317C18.6186 15.236 18.1556 15.3755 17.7561 15.5664C17.5869 15.6477 17.4253 15.7439 17.2731 15.8539V17.0169C17.5583 17.2147 17.9164 17.3788 18.2874 17.5091C19.1591 17.8074 20.165 17.9745 21.1279 18.0772C23.0791 18.2835 25.0832 18.2175 26.9998 17.858C27.9421 17.6724 28.8751 17.4079 29.6579 16.9602V14.1987C29.3497 14.0147 29.0238 13.846 28.6796 13.7019C27.7926 13.33 26.8304 13.0839 25.8514 12.8777C24.9983 12.7102 24.139 12.5767 23.2754 12.4775H23.7967C23.8925 12.4775 23.9876 12.466 24.0804 12.443L24.4974 12.2406L24.5772 12.1862C24.6945 12.0804 24.7826 11.9554 24.8409 11.8189C25.235 11.8672 25.6283 11.9148 26.0208 11.9822C27.032 12.1593 28.054 12.3817 29.0553 12.7604C29.2722 12.8417 29.4869 12.936 29.7 13.0372C29.7966 12.6531 30.1892 12.3571 30.6814 12.3571H31.6006C32.1649 12.3571 32.6233 12.7374 32.6233 13.2051V21.183C34.9893 20.483 37.2295 19.3783 39.1155 17.7169L39.1952 17.7989C37.8167 19.3054 36.0641 20.4777 34.1781 21.3011C33.6683 21.5211 33.1493 21.7181 32.6241 21.8983V22.54C32.6241 22.7731 32.5106 22.9854 32.3259 23.138L31.8659 23.3588C31.7787 23.3779 31.6898 23.3879 31.6006 23.3887H30.6814C30.1807 23.3887 29.7828 23.0843 29.6947 22.6887C29.2094 22.7861 28.721 22.8697 28.2319 22.9371C24.5802 23.4378 20.868 23.263 17.2639 22.5998C17.2569 22.7076 17.2279 22.8129 17.1785 22.909C17.1292 23.0051 17.0607 23.0901 16.9772 23.1587L16.5172 23.3787C16.4336 23.3971 16.3432 23.4094 16.2519 23.4094H15.3327C14.7669 23.4094 14.31 23.0291 14.31 22.5607V21.9313C12.8763 21.5395 11.4587 21.0419 10.1454 20.2975C9.25227 19.7723 8.35833 19.1329 7.8209 18.1631C7.5587 17.6816 7.42913 17.0974 7.54337 16.5454ZM40.5959 34.7584C40.5959 37.7338 33.285 41.0611 23.5 41.0611C13.7143 41.0611 6.40257 37.7338 6.40257 34.7584V31.7116C7.15697 31.671 7.75957 31.1244 7.75957 30.4505V27.495C7.75957 26.5642 8.61747 25.8098 9.67623 25.8098C10.735 25.8098 11.5944 26.5642 11.5944 27.495V31.1412C11.5944 32.2238 12.5934 33.1024 13.8239 33.1024C15.0559 33.1024 16.0549 32.2238 16.0549 31.1412V27.416C16.0549 26.4416 16.9534 25.6527 18.0613 25.6527C19.1706 25.6527 20.0692 26.4416 20.0692 27.416V29.7911C20.0692 30.3332 20.5675 30.7717 21.1847 30.7717C21.8003 30.7717 22.2986 30.3332 22.2986 29.7911V27.9067C22.2986 27.2029 22.9488 26.6325 23.7499 26.6325C24.5496 26.6325 25.1982 27.2029 25.1982 27.9067V31.142C25.1982 32.2245 26.1987 33.1031 27.4292 33.1031C28.6612 33.1031 29.6602 32.2245 29.6602 31.142V27.5157C29.6602 26.5957 30.5089 25.8489 31.5561 25.8489C32.6034 25.8489 33.4521 26.5957 33.4521 27.5157V30.1622C33.4521 30.7035 33.9504 31.142 34.5676 31.142C35.1832 31.142 35.6831 30.7035 35.6831 30.1622V28.3092C35.6831 27.8269 36.1262 27.4359 36.6744 27.4359C37.2241 27.4359 37.6688 27.8269 37.6688 28.3092V31.142C37.6688 32.2245 38.6662 33.1031 39.8982 33.1031C40.1436 33.1031 40.3751 33.0594 40.5959 32.995V34.7584Z" fill="#47004C"/>
</svg>
