<svg width="16" height="22" viewBox="0 0 16 22" fill="none" xmlns="http://www.w3.org/2000/svg">
<g id="Profile">
<path id="Stroke 1" fill-rule="evenodd" clip-rule="evenodd" d="M7.84455 20.6619C4.15273 20.6619 1 20.0874 1 17.7867C1 15.4859 4.13273 13.3619 7.84455 13.3619C11.5364 13.3619 14.6891 15.4653 14.6891 17.7661C14.6891 20.0659 11.5564 20.6619 7.84455 20.6619Z" stroke="white" stroke-width="1.5" stroke-linecap="round" stroke-linejoin="round"/>
<path id="Stroke 3" fill-rule="evenodd" clip-rule="evenodd" d="M7.8373 10.1737C10.26 10.1737 12.2237 8.21002 12.2237 5.7873C12.2237 3.36457 10.26 1.40002 7.8373 1.40002C5.41457 1.40002 3.45002 3.36457 3.45002 5.7873C3.44184 8.20184 5.39184 10.1655 7.80639 10.1737C7.8173 10.1737 7.8273 10.1737 7.8373 10.1737Z" stroke="white" stroke-width="1.5" stroke-linecap="round" stroke-linejoin="round"/>
</g>
</svg>
