<svg width="65" height="65" viewBox="0 0 65 65" fill="none" xmlns="http://www.w3.org/2000/svg">
<path id="Vector" d="M32.482 3.27051V6.92408M54.0578 47.1134H61.2498M39.674 47.1134H32.482V61.7276M32.482 21.5384V32.4991M32.482 32.4991H32.518M32.482 32.4991H46.9019M46.8659 61.7276H61.2498M3.71429 32.4991H18.0982M61.2498 32.4991H61.2857M7.31026 17.8848H14.5022C15.4559 17.8848 16.3706 17.4999 17.0449 16.8147C17.7193 16.1295 18.0982 15.2002 18.0982 14.2312V6.92408C18.0982 5.95509 17.7193 5.02579 17.0449 4.34061C16.3706 3.65544 15.4559 3.27051 14.5022 3.27051H7.31026C6.35655 3.27051 5.4419 3.65544 4.76753 4.34061C4.09315 5.02579 3.71429 5.95509 3.71429 6.92408V14.2312C3.71429 15.2002 4.09315 16.1295 4.76753 16.8147C5.4419 17.4999 6.35655 17.8848 7.31026 17.8848ZM50.4619 17.8848H57.6538C58.6075 17.8848 59.5222 17.4999 60.1965 16.8147C60.8709 16.1295 61.2498 15.2002 61.2498 14.2312V6.92408C61.2498 5.95509 60.8709 5.02579 60.1965 4.34061C59.5222 3.65544 58.6075 3.27051 57.6538 3.27051H50.4619C49.5082 3.27051 48.5935 3.65544 47.9191 4.34061C47.2448 5.02579 46.8659 5.95509 46.8659 6.92408V14.2312C46.8659 15.2002 47.2448 16.1295 47.9191 16.8147C48.5935 17.4999 49.5082 17.8848 50.4619 17.8848ZM7.31026 61.7276H14.5022C15.4559 61.7276 16.3706 61.3427 17.0449 60.6575C17.7193 59.9724 18.0982 59.0431 18.0982 58.0741V50.7669C18.0982 49.7979 17.7193 48.8686 17.0449 48.1835C16.3706 47.4983 15.4559 47.1134 14.5022 47.1134H7.31026C6.35655 47.1134 5.4419 47.4983 4.76753 48.1835C4.09315 48.8686 3.71429 49.7979 3.71429 50.7669V58.0741C3.71429 59.0431 4.09315 59.9724 4.76753 60.6575C5.4419 61.3427 6.35655 61.7276 7.31026 61.7276Z" stroke="#47004C" stroke-width="5.76472" stroke-linecap="round" stroke-linejoin="round"/>
</svg>
