<svg width="22" height="22" viewBox="0 0 22 22" fill="none" xmlns="http://www.w3.org/2000/svg">
<path fill-rule="evenodd" clip-rule="evenodd" d="M11 8.70898C12.2658 8.70898 13.2916 9.73484 13.2916 11.0007C13.2916 12.2665 12.2658 13.2923 11 13.2923C9.73417 13.2923 8.70831 12.2665 8.70831 11.0007C8.70831 9.73484 9.73417 8.70898 11 8.70898Z" stroke="#232323" stroke-width="1.5" stroke-linecap="round" stroke-linejoin="round"/>
<path fill-rule="evenodd" clip-rule="evenodd" d="M18.4873 6.64639V6.64639C17.8607 5.55349 16.4736 5.17953 15.3895 5.81064C14.4464 6.35845 13.2679 5.67301 13.2679 4.57649C13.2679 3.31517 12.252 2.29199 10.9998 2.29199V2.29199C9.74749 2.29199 8.73165 3.31517 8.73165 4.57649C8.73165 5.67301 7.5531 6.35845 6.61097 5.81064C5.52591 5.17953 4.1388 5.55349 3.51221 6.64639C2.88653 7.73928 3.2578 9.13642 4.34286 9.76663C5.28499 10.3153 5.28499 11.6853 4.34286 12.234C3.2578 12.8651 2.88653 14.2623 3.51221 15.3543C4.1388 16.4472 5.52591 16.8211 6.61008 16.1909H6.61097C7.5531 15.6422 8.73165 16.3276 8.73165 17.4242V17.4242C8.73165 18.6855 9.74749 19.7087 10.9998 19.7087V19.7087C12.252 19.7087 13.2679 18.6855 13.2679 17.4242V17.4242C13.2679 16.3276 14.4464 15.6422 15.3895 16.1909C16.4736 16.8211 17.8607 16.4472 18.4873 15.3543C19.1139 14.2623 18.7417 12.8651 17.6576 12.234H17.6567C16.7145 11.6853 16.7145 10.3153 17.6576 9.76663C18.7417 9.13642 19.1139 7.73928 18.4873 6.64639Z" stroke="#232323" stroke-width="1.5" stroke-linecap="round" stroke-linejoin="round"/>
</svg>
