<svg width="21" height="20" viewBox="0 0 21 20" fill="none" xmlns="http://www.w3.org/2000/svg">
<g id="Frame">
<path id="Vector" d="M13.5 4.50001C13.5 3.91977 13.7019 3.3576 14.0709 2.90986C14.44 2.46212 14.9533 2.15671 15.5229 2.04596C16.0925 1.93522 16.6828 2.02604 17.1928 2.30287C17.7027 2.5797 18.1005 3.02528 18.3179 3.56325C18.5353 4.10122 18.5588 4.69806 18.3844 5.25147C18.21 5.80487 17.8485 6.28038 17.362 6.59647C16.8754 6.91257 16.294 7.04957 15.7175 6.98398C15.141 6.9184 14.6052 6.65432 14.202 6.23701L7.47005 9.60401C7.51183 9.86636 7.51183 10.1337 7.47005 10.396L14.203 13.763C14.6182 13.3336 15.1734 13.067 15.7682 13.0115C16.3629 12.956 16.9579 13.1153 17.4453 13.4606C17.9327 13.8058 18.2805 14.3142 18.4255 14.8936C18.5706 15.473 18.5034 16.0852 18.2361 16.6194C17.9688 17.1536 17.5191 17.5744 16.9684 17.8057C16.4177 18.037 15.8023 18.0634 15.2338 17.8803C14.6653 17.6971 14.1811 17.3165 13.8689 16.8072C13.5568 16.298 13.4373 15.6938 13.532 15.104L6.79905 11.737C6.45289 12.0951 6.00766 12.3417 5.52043 12.4451C5.03321 12.5484 4.52622 12.5039 4.06446 12.3172C3.6027 12.1306 3.20723 11.8102 2.92877 11.3972C2.6503 10.9843 2.50153 10.4976 2.50153 9.99951C2.50153 9.50144 2.6503 9.01473 2.92877 8.60178C3.20723 8.18882 3.6027 7.86846 4.06446 7.68177C4.52622 7.49509 5.03321 7.45058 5.52043 7.55396C6.00766 7.65734 6.45289 7.9039 6.79905 8.26201L13.532 4.89601C13.511 4.76506 13.5003 4.63265 13.5 4.50001Z" fill="#9D00A8"/>
</g>
</svg>
