<svg width="15" height="14" viewBox="0 0 15 14" fill="none" xmlns="http://www.w3.org/2000/svg">
<path fill-rule="evenodd" clip-rule="evenodd" d="M7.5 1.75C6.31224 1.75 6.19995 3.8188 5.49282 4.54975C4.78568 5.2807 2.58728 4.44495 2.28184 5.74235C1.97704 7.04041 3.95471 7.48083 4.19854 8.5945C4.44367 9.70817 3.23538 11.2729 4.26785 12.0516C5.30031 12.8296 6.4117 11.0686 7.5 11.0686C8.58829 11.0686 9.69968 12.8296 10.7321 12.0516C11.7646 11.2729 10.557 9.70817 10.8014 8.5945C11.0459 7.48083 13.0229 7.04041 12.7181 5.74235C12.4134 4.44495 10.2143 5.2807 9.50782 4.54975C8.80068 3.8188 8.68775 1.75 7.5 1.75Z" fill="#EF9F27" stroke="#EF9F27" stroke-width="1.3" stroke-linecap="round" stroke-linejoin="round"/>
</svg>
